<!-- icon666.com - MILLIONS vector ICONS FREE --><svg xmlns="http://www.w3.org/2000/svg" viewBox="0 0 25 25"><g id="Layer_5" data-name="Layer 5"><path d="M19.5,4H17V3.25A1.37,1.37,0,0,0,15.51,2h-6A1.37,1.37,0,0,0,8,3.25V4H5.5A1.5,1.5,0,0,0,4,5.5v2a.5.5,0,0,0,.5.5H5V21.5A1.5,1.5,0,0,0,6.5,23h12A1.5,1.5,0,0,0,20,21.5V8h.5a.5.5,0,0,0,.5-.5v-2A1.5,1.5,0,0,0,19.5,4ZM9,3.25c0-.09.18-.25.49-.25h6c.31,0,.49.16.49.25V4H9ZM19,21.5a.5.5,0,0,1-.5.5H6.5a.5.5,0,0,1-.5-.5V8H19ZM20,7H5V5.5A.5.5,0,0,1,5.5,5h14a.5.5,0,0,1,.5.5Z"></path></g></svg>